<svg xmlns="http://www.w3.org/2000/svg" width="590.791" height="376.276" viewBox="0 0 590.791 376.276">
  <g id="Group_6" data-name="Group 6" transform="translate(-2521.855 -447.885)">
    <g id="Group_5" data-name="Group 5">
      <path id="Path_14" data-name="Path 14" d="M2700.088,824.161c-8.433,0-15.187-9.883-22.327-20.331-3.561-5.209-10.952-16.051-13.925-15.809-36.154,2.946-72.144,6.987-106.969,12.011a4.974,4.974,0,1,1-1.421-9.846c35.028-5.053,71.224-9.118,107.582-12.081,8.717-.7,15.627,9.4,22.946,20.112,3.83,5.6,10.927,15.989,14.081,16,2.66-1.033,7.64-11.56,10.323-17.233,5.765-12.185,10.743-22.708,18.922-23.083,29.01-1.324,58.6-1.995,87.95-1.995,89.626,0,177.71,6.152,261.806,18.283A20.689,20.689,0,0,0,3102.7,769.7V711.55a4.974,4.974,0,1,1,9.948,0V769.7a30.635,30.635,0,0,1-35.011,30.33c-83.626-12.064-171.231-18.181-260.385-18.181-29.169,0-58.576.667-87.405,1.981-2.7.971-7.753,11.65-10.474,17.4-5.688,12.024-10.6,22.408-18.611,22.905Q2700.422,824.161,2700.088,824.161Z" fill="#8dc540"/>
      <path id="Path_15" data-name="Path 15" d="M2526.83,725.931a4.975,4.975,0,0,1-4.975-4.974V714.97a4.974,4.974,0,0,1,9.949,0v5.987A4.974,4.974,0,0,1,2526.83,725.931Z" fill="#8dc540"/>
      <path id="Path_16" data-name="Path 16" d="M2526.83,697.064a4.975,4.975,0,0,1-4.975-4.975V497.581a30.827,30.827,0,0,1,26.12-30.316,1799.37,1799.37,0,0,1,197.264-18.044,4.974,4.974,0,1,1,.37,9.941,1789.633,1789.633,0,0,0-196.17,17.942,20.82,20.82,0,0,0-17.635,20.477V692.089A4.974,4.974,0,0,1,2526.83,697.064Z" fill="#8dc540"/>
      <path id="Path_17" data-name="Path 17" d="M2782.253,458.149a4.974,4.974,0,0,1-.087-9.948c11.633-.21,23.438-.316,35.084-.316a4.974,4.974,0,1,1,0,9.948c-11.587,0-23.332.107-34.906.315Z" fill="#8dc540"/>
    </g>
  </g>
</svg>
