<svg xmlns="http://www.w3.org/2000/svg" width="125.148" height="114.344" viewBox="0 0 125.148 114.344">
  <g id="Group_717" data-name="Group 717" transform="translate(-710.186 -1457)">
    <g id="Group_716" data-name="Group 716" transform="translate(711.185 1458)">
      <path id="Path_31" data-name="Path 31" d="M-473.126,300h-.008a.247.247,0,0,0-.174.082c-.8,1.118-1.648,2.227-2.469,3.3-1,1.305-2.034,2.655-2.983,4.032q-.3.44-.6.886l-.185.285c-.082.127-.164.254-.248.379l-.031.046c-.224.334-.456.679-.655,1.035a4.075,4.075,0,0,0-.5,1.278,1.505,1.505,0,0,0,.009.588,1.088,1.088,0,0,0,.093.264,1.213,1.213,0,0,0,.19.269,1.042,1.042,0,0,0,.241.195,1.264,1.264,0,0,0,.261.123,1.089,1.089,0,0,0,.353.059,1.174,1.174,0,0,0,.182-.015,2.046,2.046,0,0,0,1.02-.576,6.016,6.016,0,0,0,.865-1.071c.246-.362.466-.741.665-1.1l.2-.359c.169-.3.338-.594.5-.894.316-.591.623-1.235.965-2.027.425-.985.812-2.006,1.186-2.993.148-.39.295-.779.445-1.167.31-.8.6-1.506.89-2.16a.264.264,0,0,0,.022-.154.2.2,0,0,0,.008-.07.259.259,0,0,0-.082-.174.268.268,0,0,0-.172-.064" transform="translate(517.307 -200.475)" fill="#8dc540" stroke="#8dc540" stroke-width="2"/>
      <path id="Path_32" data-name="Path 32" d="M-504.628,283.047a.215.215,0,0,0-.155.061l-.056.016c-.379.126-.756.278-1.121.425-.2.082-.408.164-.614.243-.188.071-.376.14-.565.209l-.4.146c-.782.288-1.7.636-2.579,1.043-.469.215-.882.429-1.262.652a6.668,6.668,0,0,0-1.026.724,3.358,3.358,0,0,0-.369.378,2.04,2.04,0,0,0-.273.424,1.321,1.321,0,0,0-.064.99.822.822,0,0,0,.579.522,1.405,1.405,0,0,0,.359.044,2.529,2.529,0,0,0,.569-.075,5.793,5.793,0,0,0,1.032-.361,9.591,9.591,0,0,0,.869-.437,11.34,11.34,0,0,0,1.054-.686,18.319,18.319,0,0,0,1.477-1.2c.756-.678,1.48-1.417,2.18-2.132l.533-.543a.267.267,0,0,0,.086-.168.256.256,0,0,0-.059-.186.27.27,0,0,0-.2-.086" transform="translate(522.956 -196.869)" fill="#8dc540" stroke="#8dc540" stroke-width="2"/>
      <path id="Path_33" data-name="Path 33" d="M-527.277,247.546c-.14,0-.281,0-.423,0a10.871,10.871,0,0,0-2.41.259,3.467,3.467,0,0,0-.893.333,1.537,1.537,0,0,0-.581.535,1.144,1.144,0,0,0-.138.368,1.223,1.223,0,0,0-.021.337.936.936,0,0,0,.217.528,1.367,1.367,0,0,0,.508.356,2.892,2.892,0,0,0,.7.192,6.254,6.254,0,0,0,1.03.076c.291,0,.584-.014.873-.032.678-.042,1.411-.129,2.307-.272.746-.12,1.526-.269,2.385-.457.671-.145,1.376-.311,2.1-.5.483-.123.966-.252,1.446-.4.162-.05.3-.092.435-.14a.2.2,0,0,0,.108-.1.229.229,0,0,0,.106-.052.261.261,0,0,0,.086-.169.247.247,0,0,0-.061-.185.267.267,0,0,0-.165-.086,18.26,18.26,0,0,0-2.334-.271c-.321-.023-.641-.046-.96-.076-.7-.065-1.4-.13-2.1-.176-.822-.056-1.548-.083-2.22-.083" transform="translate(531.746 -185.723)" fill="#8dc540" stroke="#8dc540" stroke-width="2"/>
      <path id="Path_34" data-name="Path 34" d="M-522.057,197.88c-.069,0-.138,0-.21.009a1.189,1.189,0,0,0-.962.543,1.4,1.4,0,0,0,.117,1.306,4.882,4.882,0,0,0,.444.7,7.806,7.806,0,0,0,.529.649,11.72,11.72,0,0,0,2.549,2.058,25.867,25.867,0,0,0,3.085,1.595c.814.364,1.654.711,2.465,1.046l.714.294c.535.222,1.068.45,1.595.69l0,0c.2.093.4.187.6.285a.31.31,0,0,0,.135.037.236.236,0,0,0,.051-.006.251.251,0,0,0,.16-.112.255.255,0,0,0,.032-.185.287.287,0,0,0-.047-.1.19.19,0,0,0-.045-.06l-1.1-.991c-.827-.743-1.654-1.486-2.473-2.237-.564-.516-1.123-1.033-1.672-1.562l-.477-.464c-.318-.31-.636-.619-.961-.922a17.972,17.972,0,0,0-1.537-1.3,8.394,8.394,0,0,0-1.669-.971,3.961,3.961,0,0,0-.774-.242,2.883,2.883,0,0,0-.544-.055" transform="translate(527.769 -168.777)" fill="#8dc540" stroke="#8dc540" stroke-width="2"/>
      <path id="Path_35" data-name="Path 35" d="M-479.281,160.268l-.047,0a1.029,1.029,0,0,0-.356.085,1.121,1.121,0,0,0-.281.18,1.417,1.417,0,0,0-.258.285,1.608,1.608,0,0,0-.257.7,2.749,2.749,0,0,0,.015.818,5.191,5.191,0,0,0,.236.918,10.519,10.519,0,0,0,.426,1.037,20.147,20.147,0,0,0,1.242,2.2c1.007,1.577,2.134,3.042,3,4.143q.414.524.836,1.045l.14.174c.14.174.279.347.416.524a.224.224,0,0,0,.178.079,1.442,1.442,0,0,0,.15.017.237.237,0,0,0,.051-.006.251.251,0,0,0,.158-.111.242.242,0,0,0,.031-.186c-.139-.406-.273-.814-.407-1.221l-.235-.713-.141-.419c-.063-.186-.126-.373-.187-.56l-.214-.672c-.094-.3-.189-.594-.286-.891-.267-.81-.52-1.538-.776-2.228-.337-.9-.641-1.64-.956-2.314a10.91,10.91,0,0,0-1.078-1.893,3.444,3.444,0,0,0-.545-.606,1.56,1.56,0,0,0-.606-.346.993.993,0,0,0-.252-.035" transform="translate(517.031 -157.514)" fill="#8dc540" stroke="#8dc540" stroke-width="2"/>
      <path id="Path_36" data-name="Path 36" d="M-424.767,155.04h-.033a1,1,0,0,0-.374.095,1.276,1.276,0,0,0-.281.179,2.671,2.671,0,0,0-.282.269,4.122,4.122,0,0,0-.28.349,3.131,3.131,0,0,0-.25.388,5,5,0,0,0-.439,1.126,10.375,10.375,0,0,0-.255,1.277c-.066.459-.111.919-.155,1.379-.037.387-.075.773-.125,1.158l0-.011c-.131,1-.211,2.017-.278,2.968l-.006.093c-.068.982-.137,2-.268,2.991l0-.007c-.04.289-.084.576-.134.864a.258.258,0,0,0,.023.19.166.166,0,0,0,.029.041.262.262,0,0,0,.17.156.246.246,0,0,0,.065.009.26.26,0,0,0,.242-.186c.225-.68.5-1.4.857-2.256l.011-.033.007-.031c.138-.315.277-.636.415-.958.451-1.05.917-2.137,1.3-3.237l.048-.142c.064-.189.128-.377.2-.566l.143-.4.143-.4a16.683,16.683,0,0,0,.524-1.7,6.143,6.143,0,0,0,.207-1.665,2.673,2.673,0,0,0-.49-1.508,1.21,1.21,0,0,0-.244-.253,1.006,1.006,0,0,0-.265-.145.633.633,0,0,0-.22-.035" transform="translate(501.381 -155.04)" fill="#8dc540" stroke="#8dc540" stroke-width="2"/>
      <path id="Path_37" data-name="Path 37" d="M-380.458,174.94a4.673,4.673,0,0,0-.825.081,5.684,5.684,0,0,0-2.494,1.216,13.272,13.272,0,0,0-1.8,1.733c-.514.583-1.033,1.244-1.635,2.079-.513.711-1.007,1.448-1.428,2.084l-.286.431c-.3.455-.6.911-.919,1.357a.265.265,0,0,0-.061.177.258.258,0,0,0,.086.174.261.261,0,0,0,.171.06.225.225,0,0,0,.172-.072c.95-.662,1.933-1.248,2.884-1.814.332-.2.664-.4.994-.6.311-.188.619-.381.925-.577.165-.105.328-.212.489-.324s.328-.243.488-.366c.516-.4,1.023-.82,1.525-1.261.651-.574,1.167-1.067,1.622-1.553a9.293,9.293,0,0,0,.643-.752,4.317,4.317,0,0,0,.447-.7,1.42,1.42,0,0,0,.165-.629.688.688,0,0,0-.247-.516,1.141,1.141,0,0,0-.651-.224q-.132-.011-.265-.011" transform="translate(494.964 -164.459)" fill="#8dc540" stroke="#8dc540" stroke-width="2"/>
      <path id="Path_38" data-name="Path 38" d="M-366.761,213.083a3.049,3.049,0,0,0-.444.033,9.281,9.281,0,0,0-1.806.473c-.628.219-1.281.485-2.119.861-1.1.5-2.235,1.061-3.477,1.728q-.65.348-1.293.713c-.207.117-.414.234-.619.357a.234.234,0,0,0-.13.082.252.252,0,0,0-.121.162.244.244,0,0,0,.03.187.254.254,0,0,0,.215.119.244.244,0,0,0,.129-.037l.072-.05v0c.456-.115.918-.21,1.377-.3l.289-.058c.176-.036.352-.072.529-.1l-.065,0c.5-.074,1.01-.142,1.515-.21.243-.033.486-.065.728-.1.764-.109,1.769-.263,2.763-.489a9.8,9.8,0,0,0,2.376-.807,2.981,2.981,0,0,0,.783-.573,1.546,1.546,0,0,0,.389-.733,1.307,1.307,0,0,0,0-.635.817.817,0,0,0-.112-.23.852.852,0,0,0-.228-.214.9.9,0,0,0-.244-.112,1.168,1.168,0,0,0-.271-.056,2.609,2.609,0,0,0-.263-.013" transform="translate(488.75 -174.124)" fill="#8dc540" stroke="#8dc540" stroke-width="2"/>
      <path id="Path_39" data-name="Path 39" d="M-374.989,252.242c-.362,0-.723.006-1.085.015-.312.008-.624.016-.936.042a.252.252,0,0,0-.24.258.256.256,0,0,0,.145.219.2.2,0,0,0,.007.091.238.238,0,0,0,.12.145c.237.092.473.185.708.279q.421.167.844.331c.9.341,1.7.623,2.458.858a19.253,19.253,0,0,0,2.677.662,8.484,8.484,0,0,0,1.212.116h.1a3.672,3.672,0,0,0,.908-.106,1.738,1.738,0,0,0,.755-.4,1.385,1.385,0,0,0,.38-.563.741.741,0,0,0,.034-.259.746.746,0,0,0-.083-.3.859.859,0,0,0-.154-.212,1.378,1.378,0,0,0-.246-.2,2.889,2.889,0,0,0-.65-.3,6.721,6.721,0,0,0-.846-.229,18.535,18.535,0,0,0-2.174-.3c-1.065-.1-2.206-.144-3.589-.153-.115,0-.232,0-.347,0" transform="translate(488.974 -187.275)" fill="#8dc540" stroke="#8dc540" stroke-width="2"/>
    </g>
  </g>
</svg>
