<svg xmlns="http://www.w3.org/2000/svg" width="80.736" height="97.116" viewBox="0 0 80.736 97.116">
  <g id="apple" transform="translate(-43.174 0.001)">
    <path id="Path_43" data-name="Path 43" d="M109.292,353.064a48.538,48.538,0,0,0,9.616,14.919,1.423,1.423,0,1,0,2.014-2.01,45.61,45.61,0,0,1-9.008-14.015,1.423,1.423,0,0,0-2.621,1.106Z" transform="translate(-53.486 -284.495)" fill="#71ac1d"/>
    <path id="Path_44" data-name="Path 44" d="M96.019,286.47a1.423,1.423,0,0,0-2.845,0,26.735,26.735,0,0,0,.88,6.382,1.423,1.423,0,0,0,2.76-.689A23.924,23.924,0,0,1,96.019,286.47Z" transform="translate(-40.516 -230.982)" fill="#71ac1d"/>
    <path id="Path_45" data-name="Path 45" d="M106.359,243.856c-3.971,3.981-7.892,6.086-11.339,6.086a23.56,23.56,0,0,1-6.626-.974,16.8,16.8,0,0,0-9.7,0,23.557,23.557,0,0,1-6.627.974c-3.448,0-7.369-2.1-11.34-6.086-8.246-8.262-14.706-22.623-14.706-32.694a30.273,30.273,0,0,1,4.73-16.841,1.423,1.423,0,1,0-2.37-1.574,33.1,33.1,0,0,0-5.205,18.415c0,5.312,1.621,11.815,4.564,18.312a56.911,56.911,0,0,0,10.973,16.391c4.516,4.529,9.134,6.922,13.354,6.922a26.107,26.107,0,0,0,7.451-1.1,13.937,13.937,0,0,1,8.054,0,26.109,26.109,0,0,0,7.45,1.1c4.22,0,8.838-2.394,13.354-6.922a1.422,1.422,0,0,0-2.014-2.009Z" transform="translate(0 -155.673)" fill="#71ac1d"/>
    <path id="Path_46" data-name="Path 46" d="M159,35.8a24.528,24.528,0,0,0-13.243-9.266c-3.784-.981-8.447-.765-13.859.644a28.42,28.42,0,0,1-5.534.872,12.321,12.321,0,0,1,3.257-6.585,5.057,5.057,0,0,0,1.431.649,18.741,18.741,0,0,0,5.041.715c6.45,0,11.379-3.662,15.45-7.474a1.423,1.423,0,1,0-1.945-2.077c-4.721,4.42-10.143,8.218-17.785,6.094-.039-.011-.078-.023-.116-.036.811-.746,1.649-1.435,2.461-2.056a54.708,54.708,0,0,1,9.4-5.678,1.423,1.423,0,1,0-1.169-2.594,53.716,53.716,0,0,0-12.211,7.862,2.258,2.258,0,0,1,.056-.274,17.447,17.447,0,0,1,9.751-11.726,25.3,25.3,0,0,1,18.946-.362,49.249,49.249,0,0,0-4.927,4.427,1.423,1.423,0,1,0,2,2.019,39.84,39.84,0,0,1,5.482-4.78,2.145,2.145,0,0,0-.163-3.655c-5.052-2.783-14.662-3.811-22.52-.239a20.211,20.211,0,0,0-11.321,13.575,5.091,5.091,0,0,0,.272,3.416,18.875,18.875,0,0,0-3.244,4.852A11.863,11.863,0,0,0,120.5,19.47a4.1,4.1,0,0,0-.139-1.248,15.321,15.321,0,0,0-8.507-10.2c-5.872-2.67-13.062-1.9-16.846.188a1.952,1.952,0,0,0-.148,3.327,35.657,35.657,0,0,1,4.821,4.317c3.765,3.775,7.947,7.969,13.938,7.969a14.382,14.382,0,0,0,3.865-.552,4.087,4.087,0,0,0,1.879-1.13,8.981,8.981,0,0,1,2.111,2.4,13.627,13.627,0,0,1,1.514,3.509,28.424,28.424,0,0,1-5.428-.866c-5.412-1.409-10.074-1.626-13.859-.644a23.222,23.222,0,0,0-8.93,4.7A1.423,1.423,0,1,0,96.6,33.42a20.361,20.361,0,0,1,7.821-4.129c3.263-.847,7.56-.624,12.427.643a31.262,31.262,0,0,0,6.725.99,30.619,30.619,0,0,1,.139,5.876c-2.7-.3-4.419-1.483-4.419-2.3a1.423,1.423,0,0,0-2.845,0c0,2.975,3.683,5.218,8.567,5.218s8.567-2.243,8.567-5.218a1.423,1.423,0,0,0-2.845,0c0,.794-1.613,1.93-4.171,2.272a33.068,33.068,0,0,0-.123-5.871,31.262,31.262,0,0,0,6.172-.965c4.867-1.267,9.164-1.489,12.427-.643a21.682,21.682,0,0,1,11.678,8.214,29.731,29.731,0,0,1,5.535,17.983c0,8.086-4.216,19.236-10.491,27.745a1.422,1.422,0,1,0,2.29,1.688c6.711-9.1,11.047-20.653,11.047-29.434A32.54,32.54,0,0,0,159,35.8ZM116.728,20.533c-6.545,1.82-10.857-2.5-15.027-6.684a51.07,51.07,0,0,0-4-3.738,18.319,18.319,0,0,1,12.976.506,12.416,12.416,0,0,1,6.937,8.347h0A1.284,1.284,0,0,1,116.728,20.533Z" transform="translate(-41.19)" fill="#71ac1d"/>
  </g>
</svg>
