<svg xmlns="http://www.w3.org/2000/svg" width="97.371" height="97.373" viewBox="0 0 97.371 97.373">
  <g id="harvest" transform="translate(-1 -1)">
    <rect id="Rectangle_519" data-name="Rectangle 519" width="3.175" height="3.175" transform="translate(82.496 57.095)" fill="#71ac1d"/>
    <rect id="Rectangle_520" data-name="Rectangle 520" width="3.175" height="3.175" transform="translate(82.496 69.795)" fill="#71ac1d"/>
    <rect id="Rectangle_521" data-name="Rectangle 521" width="3.175" height="3.175" transform="translate(82.496 82.496)" fill="#71ac1d"/>
    <path id="Path_47" data-name="Path 47" d="M95.23,44.974H88.19a21.87,21.87,0,0,0-5.04-9.891,13.776,13.776,0,0,0-3.9-3.062,10.984,10.984,0,0,0,4.744-9.034V21.417H76.139a10.989,10.989,0,0,0-9.423,5.36v-3.79A6.288,6.288,0,0,1,73,16.705V13.564a9.433,9.433,0,0,0-9.423,9.423V31.7A12.168,12.168,0,0,0,50.364,34.99c-.4.449-.782.916-1.145,1.393l.137-.655a16.109,16.109,0,0,0,.33-3.318,15.649,15.649,0,0,0-4.773-11.253l5.506-8.1a5.024,5.024,0,0,0,.324-.554,4.869,4.869,0,0,0-2.175-6.524l-.393-.2a4.866,4.866,0,0,0-6.536,2.2,4.648,4.648,0,0,0-.221.517l-3.2,8.807c-.217-.061-.437-.118-.656-.17l1.109-11.1a4.2,4.2,0,0,0,.025-.466A4.568,4.568,0,0,0,34.13,1h-.3a4.568,4.568,0,0,0-4.564,4.562,4.225,4.225,0,0,0,.024.455L30.4,17.134c-.221.052-.44.108-.656.17L26.546,8.5a5.015,5.015,0,0,0-.234-.543,4.863,4.863,0,0,0-6.524-2.175l-.393.2a4.873,4.873,0,0,0-2.172,6.53,5.267,5.267,0,0,0,.324.551l5.509,8.109a15.837,15.837,0,0,0-4.449,14.562l1.927,9.247H18.276a3.144,3.144,0,0,0-3.141,3.141v.126a11.034,11.034,0,0,0-1.571-.126H5.712v1.571a10.984,10.984,0,0,0,4.745,9.034,13.71,13.71,0,0,0-3.9,3.064,21.985,21.985,0,0,0,16.424,36.59c.294,0,.586-.006.881-.017a21.9,21.9,0,0,0,14.453-6.265H84.237a7.861,7.861,0,0,0,7.853-7.853V54.4H95.23a3.144,3.144,0,0,0,3.141-3.141V48.115A3.144,3.144,0,0,0,95.23,44.974ZM76.139,24.558h4.553A7.866,7.866,0,0,1,73,30.84H68.445A7.865,7.865,0,0,1,76.139,24.558ZM52.7,37.09a9.174,9.174,0,0,1,10.293-2.282c.188.08.388.143.584.21v3.353a11.556,11.556,0,0,1-3.6-2.364l-2.219,2.224c.367.369,3.706,3.6,7.392,3.6s7.025-3.232,7.392-3.6l-2.219-2.224a11.612,11.612,0,0,1-3.6,2.364V33.981H73a10.905,10.905,0,0,0,1.563-.124A9.625,9.625,0,0,1,80.8,37.17a18.741,18.741,0,0,1,4.154,7.8H48.475A18.749,18.749,0,0,1,52.7,37.09ZM44.37,9.564a1.649,1.649,0,0,1,.091-.206,1.721,1.721,0,0,1,2.31-.77l.393.2a1.721,1.721,0,0,1,.773,2.3,1.8,1.8,0,0,1-.118.2L42.444,19.2q-.634-.408-1.305-.754Zm-11.959-4a1.423,1.423,0,0,1,1.421-1.421h.3A1.449,1.449,0,0,1,35.542,5.7l-1.1,11.025c-.152,0-.3-.024-.459-.024s-.306.019-.46.024ZM20.146,11.3a1.671,1.671,0,0,1-.118-.2,1.722,1.722,0,0,1,.77-2.31l.393-.2A1.714,1.714,0,0,1,22.5,8.494a1.737,1.737,0,0,1,1.011.894,1.511,1.511,0,0,1,.077.177l3.231,8.884q-.671.346-1.3.754Zm13.835,8.55a12.669,12.669,0,0,1,12.3,15.24L44.22,44.974H26.728A6.222,6.222,0,0,1,30.84,43.4V40.263A9.406,9.406,0,0,0,23.494,43.8l-1.816-8.71a13.075,13.075,0,0,1-.262-2.676A12.579,12.579,0,0,1,33.981,19.846ZM18.276,48.115h3.282a9.419,9.419,0,0,0-.141,1.571v1.745a11.014,11.014,0,0,0-3.141-2.238Zm-4.712,3.141a7.865,7.865,0,0,1,7.694,6.282H16.705a7.865,7.865,0,0,1-7.694-6.282Zm10.174,43.96A18.846,18.846,0,0,1,8.9,63.869a9.611,9.611,0,0,1,6.244-3.314,10.906,10.906,0,0,0,1.563.124h4.712V65.07a11.556,11.556,0,0,1-3.6-2.364l-2.219,2.224c.367.369,3.706,3.6,7.392,3.6s7.025-3.232,7.392-3.6L28.16,62.707a11.612,11.612,0,0,1-3.6,2.364V62.113a9.158,9.158,0,0,0,2.155-.606A9.169,9.169,0,0,1,37,63.789,18.845,18.845,0,0,1,23.738,95.216ZM44.949,76.384a21.878,21.878,0,0,0-2.092-9.423H88.948v9.423ZM84.237,88.948H40.99a21.831,21.831,0,0,0,3.758-9.423h44.2v4.712A4.717,4.717,0,0,1,84.237,88.948ZM95.23,51.256H88.948V63.82H41.009a22.033,22.033,0,0,0-1.669-2.131A12.2,12.2,0,0,0,25.478,58.62a6.124,6.124,0,0,1-.919.281V54.4h61.25V51.256H24.558V49.686a6.186,6.186,0,0,1,.223-1.571H95.23Z" fill="#71ac1d"/>
    <path id="Path_48" data-name="Path 48" d="M8.141,49H5A15.723,15.723,0,0,0,20.705,64.705V61.564A12.579,12.579,0,0,1,8.141,49Z" transform="translate(2.282 27.384)" fill="#71ac1d"/>
    <rect id="Rectangle_522" data-name="Rectangle 522" width="3.175" height="3.175" transform="translate(39.102 26.402)" fill="#71ac1d"/>
    <rect id="Rectangle_523" data-name="Rectangle 523" width="3.175" height="3.175" transform="translate(39.102 32.752)" fill="#71ac1d"/>
    <rect id="Rectangle_524" data-name="Rectangle 524" width="3.175" height="3.175" transform="translate(39.102 39.102)" fill="#71ac1d"/>
  </g>
</svg>
