<svg id="smartphone" xmlns="http://www.w3.org/2000/svg" width="30" height="30" viewBox="0 0 30 30">
  <ellipse id="Ellipse_33" data-name="Ellipse 33" cx="1" cy="0.5" rx="1" ry="0.5" transform="translate(4 4)" fill="#8dc540"/>
  <path id="Path_61" data-name="Path 61" d="M16.113,0H3.223A3.226,3.226,0,0,0,0,3.223V26.777A3.226,3.226,0,0,0,3.223,30H16.113a3.226,3.226,0,0,0,3.223-3.223V3.223A3.226,3.226,0,0,0,16.113,0Zm1.465,26.777a1.467,1.467,0,0,1-1.465,1.465H3.223a1.467,1.467,0,0,1-1.465-1.465v-.293h15.82Zm0-2.051H1.758V3.223A1.467,1.467,0,0,1,3.223,1.758H16.113a1.467,1.467,0,0,1,1.465,1.465Z" fill="#8dc540"/>
  <path id="Path_62" data-name="Path 62" d="M130.879,61.758h2.344a.879.879,0,0,0,0-1.758h-2.344a.879.879,0,0,0,0,1.758Z" transform="translate(-122.383 -56.484)" fill="#8dc540"/>
  <path id="Path_63" data-name="Path 63" d="M87.418,137.327a3.223,3.223,0,1,0-4.875,0A4.983,4.983,0,0,0,80,141.668v.586a.879.879,0,0,0,.879.879h8.2a.879.879,0,0,0,.879-.879v-.586A4.983,4.983,0,0,0,87.418,137.327Zm-2.437-3.569a1.465,1.465,0,1,1-1.465,1.465A1.467,1.467,0,0,1,84.98,133.758Zm-3.209,7.617a3.223,3.223,0,0,1,6.419,0Z" transform="translate(-75.313 -124.266)" fill="#8dc540"/>
  <path id="Path_64" data-name="Path 64" d="M89.082,352h-8.2a.879.879,0,0,0,0,1.758h8.2a.879.879,0,0,0,0-1.758Z" transform="translate(-75.313 -331.375)" fill="#8dc540"/>
  <circle id="Ellipse_34" data-name="Ellipse 34" cx="0.879" cy="0.879" r="0.879" transform="translate(21.211 5.089)" fill="#8dc540"/>
  <path id="Path_65" data-name="Path 65" d="M405.927,44.684a.879.879,0,1,0-1.243,1.243,2.64,2.64,0,0,1,0,3.729.879.879,0,1,0,1.243,1.243A4.4,4.4,0,0,0,405.927,44.684Z" transform="translate(-380.73 -41.824)" fill="#8dc540"/>
  <path id="Path_66" data-name="Path 66" d="M448.353,2.258A.879.879,0,1,0,447.11,3.5a6.152,6.152,0,0,1,0,8.7.879.879,0,1,0,1.243,1.243,7.91,7.91,0,0,0,0-11.187Z" transform="translate(-420.67 -1.883)" fill="#8dc540"/>
</svg>
