<svg xmlns="http://www.w3.org/2000/svg" width="117.609" height="94.024" viewBox="0 0 117.609 94.024">
  <g id="strawberry" transform="translate(-0.003 -51.261)">
    <g id="Group_720" data-name="Group 720" transform="translate(0.003 51.261)">
      <path id="Path_49" data-name="Path 49" d="M408.872,310.577a1.726,1.726,0,0,0-1.725,1.725v3.079a1.725,1.725,0,0,0,3.451,0V312.3A1.726,1.726,0,0,0,408.872,310.577Z" transform="translate(-313.479 -250.918)" fill="#71ac1d"/>
      <path id="Path_50" data-name="Path 50" d="M342.755,310.577a1.726,1.726,0,0,0-1.725,1.725v3.079a1.725,1.725,0,0,0,3.451,0V312.3A1.726,1.726,0,0,0,342.755,310.577Z" transform="translate(-262.573 -250.918)" fill="#71ac1d"/>
      <path id="Path_51" data-name="Path 51" d="M375.814,258.622a1.726,1.726,0,0,0-1.725,1.725v3.079a1.725,1.725,0,0,0,3.451,0v-3.079A1.725,1.725,0,0,0,375.814,258.622Z" transform="translate(-288.026 -210.916)" fill="#71ac1d"/>
      <path id="Path_52" data-name="Path 52" d="M446.426,258.622a1.725,1.725,0,0,0-1.725,1.725v3.079a1.725,1.725,0,0,0,3.451,0v-3.079A1.726,1.726,0,0,0,446.426,258.622Z" transform="translate(-342.393 -210.916)" fill="#71ac1d"/>
      <path id="Path_53" data-name="Path 53" d="M375.814,355.7a1.726,1.726,0,0,0-1.725,1.725V360.5a1.725,1.725,0,0,0,3.451,0V357.42A1.725,1.725,0,0,0,375.814,355.7Z" transform="translate(-288.026 -285.657)" fill="#71ac1d"/>
      <path id="Path_54" data-name="Path 54" d="M108.99,83.993c.366-.355.728-.719,1.078-1.1A19.937,19.937,0,0,0,115.312,71.6a2.814,2.814,0,0,0-1.387-2.741,19.907,19.907,0,0,0-12.036-2.477,25.331,25.331,0,0,0-3.449.581,24.188,24.188,0,0,0-.794-3.942,1.726,1.726,0,0,0-3.316.956,20.573,20.573,0,0,1,.752,4.1,16.867,16.867,0,0,0-2.922,1.6,24.9,24.9,0,0,0-4.37,3.822,24.861,24.861,0,0,0-4.367-3.822,16.858,16.858,0,0,0-2.911-1.593A19.7,19.7,0,0,1,82.019,62.4a16.553,16.553,0,0,1,6.19-7.559,15.609,15.609,0,0,1,2.833,2.707,1.725,1.725,0,1,0,2.675-2.18,19,19,0,0,0-3.879-3.6,2.814,2.814,0,0,0-3.071-.092,19.913,19.913,0,0,0-7.928,9.389,23.656,23.656,0,0,0-1.666,5.911,25.324,25.324,0,0,0-3.478-.589,19.913,19.913,0,0,0-12.036,2.477A2.814,2.814,0,0,0,60.272,71.6a19.934,19.934,0,0,0,5.243,11.289q.526.576,1.078,1.109a30.029,30.029,0,0,0-4.183,5.313,29.752,29.752,0,0,0-18.136-6.272q.011-.765-.024-1.542a19.937,19.937,0,0,0-4.275-11.69,2.813,2.813,0,0,0-2.919-.958,19.91,19.91,0,0,0-10.262,6.759,25.314,25.314,0,0,0-2.027,2.848,24.573,24.573,0,0,0-4.52-2.833A19.936,19.936,0,0,0,7.935,73.8,2.814,2.814,0,0,0,5.7,75.9,19.91,19.91,0,0,0,6.732,88.147,23.6,23.6,0,0,0,9.737,93.5a25.312,25.312,0,0,0-2.879,2.045A19.912,19.912,0,0,0,.1,105.81a2.814,2.814,0,0,0,.958,2.919A19.937,19.937,0,0,0,12.746,113q.591.027,1.175.027c.118,0,.235,0,.353-.006a29.621,29.621,0,0,0,8.732,20.908,27.788,27.788,0,0,0,4.2,3.454,1.725,1.725,0,0,0,1.925-2.864,24.365,24.365,0,0,1-3.681-3.03A26.37,26.37,0,1,1,62.739,94.2c2.524,2.524,5.443,6.339,7.958,15.5.49,1.785.912,3.583,1.254,5.344,1.517,7.806,1.518,14.792,0,20.764a6.763,6.763,0,0,1-4.916,4.9c-11.292,2.837-23.668-.322-30.041-2.457q-.509-.17-1.007-.35a1.726,1.726,0,0,0-1.169,3.247q.535.193,1.08.375a69.865,69.865,0,0,0,21.444,3.759,43.3,43.3,0,0,0,10.535-1.227,10.209,10.209,0,0,0,7.018-6.158,42.593,42.593,0,0,0,7.649,5.936,10.211,10.211,0,0,0,10.477.016c5.734-3.414,11.042-8.7,15.776-15.719,1.052-1.559,2.071-3.2,3.03-4.889,2.86-5.025,5.784-11.129,5.784-18.294a29.728,29.728,0,0,0-8.623-20.952ZM14.451,109.567c-.514.014-1.032.012-1.55-.011A16.585,16.585,0,0,1,3.546,106.3a16.553,16.553,0,0,1,5.5-8.078,17.359,17.359,0,0,1,7.642-3.829,21.26,21.26,0,0,1,4.259-.345A29.531,29.531,0,0,0,14.451,109.567Zm7.79-24.751a24.817,24.817,0,0,0-.386,5.794,24.8,24.8,0,0,0-5.792.384,16.866,16.866,0,0,0-3.184.931,19.687,19.687,0,0,1-2.951-5.08,16.554,16.554,0,0,1-.968-9.722,16.583,16.583,0,0,1,9.776,1.606,21.162,21.162,0,0,1,4.442,2.892,16.85,16.85,0,0,0-.936,3.2Zm18.573-1.6A29.677,29.677,0,0,0,25.291,89.7a21.206,21.206,0,0,1,.344-4.261A17.356,17.356,0,0,1,29.464,77.8a16.553,16.553,0,0,1,8.077-5.5A16.583,16.583,0,0,1,40.8,81.655c.023.524.026,1.046.011,1.566ZM94.12,72.513a17.354,17.354,0,0,1,8.111-2.7,16.552,16.552,0,0,1,9.6,1.825,16.583,16.583,0,0,1-4.309,8.921c-.354.387-.725.756-1.1,1.113a29.68,29.68,0,0,0-15.552-6.394A21.141,21.141,0,0,1,94.12,72.513Zm-30.367-.871a16.556,16.556,0,0,1,9.6-1.825,17.356,17.356,0,0,1,8.111,2.7,21.333,21.333,0,0,1,3.26,2.769,29.67,29.67,0,0,0-15.556,6.392c-.379-.357-.751-.724-1.105-1.112a16.583,16.583,0,0,1-4.309-8.921Zm45.076,49.889c-.916,1.609-1.889,3.179-2.892,4.666-4.447,6.592-9.386,11.533-14.68,14.684a6.763,6.763,0,0,1-6.94-.012,40.746,40.746,0,0,1-8.448-6.875,53.689,53.689,0,0,0-.531-19.609c-.359-1.846-.8-3.73-1.314-5.6-1.531-5.576-3.779-11.959-8.846-17.025-.045-.045-.091-.088-.136-.133a26.363,26.363,0,0,1,49.119,13.317c0,3.569-.634,8.331-5.332,16.587Z" transform="translate(-0.003 -51.261)" fill="#71ac1d"/>
      <path id="Path_55" data-name="Path 55" d="M234.132,312.248a1.725,1.725,0,1,0-2.44,2.44l2.177,2.177a1.725,1.725,0,0,0,2.44-2.44Z" transform="translate(-178 -251.816)" fill="#71ac1d"/>
      <path id="Path_56" data-name="Path 56" d="M184.94,359a1.725,1.725,0,0,0,0,2.44l2.177,2.177a1.725,1.725,0,0,0,2.44-2.44L187.38,359A1.725,1.725,0,0,0,184.94,359Z" transform="translate(-142.004 -287.811)" fill="#71ac1d"/>
      <path id="Path_57" data-name="Path 57" d="M174.019,298.886a1.725,1.725,0,0,0-2.44,2.44l2.177,2.177a1.725,1.725,0,0,0,2.44-2.44Z" transform="translate(-131.717 -241.528)" fill="#71ac1d"/>
      <path id="Path_58" data-name="Path 58" d="M223.949,248.954a1.725,1.725,0,0,0-2.44,2.44l2.177,2.177a1.725,1.725,0,0,0,2.44-2.44Z" transform="translate(-170.16 -203.084)" fill="#71ac1d"/>
      <path id="Path_59" data-name="Path 59" d="M124.088,348.816a1.725,1.725,0,1,0-2.44,2.44l2.177,2.177a1.725,1.725,0,0,0,2.44-2.44Z" transform="translate(-93.273 -279.971)" fill="#71ac1d"/>
      <path id="Path_60" data-name="Path 60" d="M240.22,367.526a1.725,1.725,0,0,0,0,2.44l2.177,2.177a1.725,1.725,0,1,0,2.44-2.44l-2.177-2.177a1.725,1.725,0,0,0-2.44,0Z" transform="translate(-184.566 -294.377)" fill="#71ac1d"/>
    </g>
  </g>
</svg>
