<svg xmlns="http://www.w3.org/2000/svg" width="31" height="32" viewBox="0 0 31 32">
  <g id="Group_680" data-name="Group 680" transform="translate(-0.06 0)">
    <ellipse id="Ellipse_22" data-name="Ellipse 22" cx="15.5" cy="16" rx="15.5" ry="16" transform="translate(0.06 0)" fill="#475993"/>
    <rect id="Rectangle_501" data-name="Rectangle 501" width="16" height="20" transform="translate(7.06 5)" fill="#fff"/>
    <path id="facebook_1_" data-name="facebook (1)" d="M18.551,0H2.891A2.889,2.889,0,0,0,0,2.889V18.55a2.889,2.889,0,0,0,2.889,2.889h7.724l.013-7.661H8.637a.47.47,0,0,1-.47-.468l-.01-2.469a.47.47,0,0,1,.47-.471h1.987V7.983a3.9,3.9,0,0,1,4.161-4.277H16.8a.47.47,0,0,1,.47.47V6.258a.47.47,0,0,1-.469.47H15.559c-1.343,0-1.6.638-1.6,1.575v2.066h2.952a.47.47,0,0,1,.466.525l-.293,2.469a.47.47,0,0,1-.466.414H13.969l-.013,7.661h4.6A2.889,2.889,0,0,0,21.44,18.55V2.889A2.889,2.889,0,0,0,18.551,0Z" transform="translate(4.318 4.379)" fill="#475993"/>
  </g>
</svg>
